<svg xmlns="http://www.w3.org/2000/svg" style="display: none">
  <symbol id="success-thin" viewBox="0 0 256 256" fill="currentColor">
    <path d="M128,28A100,100,0,1,0,228,128,100.11332,100.11332,0,0,0,128,28Zm0,192a92,92,0,1,1,92-92A92.10416,92.10416,0,0,1,128,220ZM84,108a8,8,0,1,1,8,8A7.99977,7.99977,0,0,1,84,108Zm72,0a8,8,0,1,1,8,8A7.99977,7.99977,0,0,1,156,108Zm17.04248,46a52.01569,52.01569,0,0,1-90.08447.00049,3.99987,3.99987,0,1,1,6.9248-4.00537,44.01578,44.01578,0,0,0,76.23438-.00049A4.00008,4.00008,0,1,1,173.04248,154Z"/>
  </symbol>
  <symbol id="error-thin" viewBox="0 0 256 256" fill="currentColor">
    <path d="M128,28A100,100,0,1,0,228,128,100.11332,100.11332,0,0,0,128,28Zm0,192a92,92,0,1,1,92-92A92.10416,92.10416,0,0,1,128,220ZM84,108a8,8,0,1,1,8,8A7.99977,7.99977,0,0,1,84,108Zm72,0a8,8,0,1,1,8,8A7.99977,7.99977,0,0,1,156,108Zm17.04248,65.99707a4.0002,4.0002,0,1,1-6.92529,4.00586,44.01554,44.01554,0,0,0-76.23438-.001,3.99975,3.99975,0,1,1-6.9248-4.00488,52.01544,52.01544,0,0,1,90.08447,0Z"/>
  </symbol>
  <symbol id="success-thick" viewBox="0 0 256 256" fill="currentColor">
    <path d="M128,20A108,108,0,1,0,236,128,108.12217,108.12217,0,0,0,128,20Zm0,192a84,84,0,1,1,84-84A84.0953,84.0953,0,0,1,128,212ZM76,108a16,16,0,1,1,16,16A16.00016,16.00016,0,0,1,76,108Zm72,0a16,16,0,1,1,16,16A16.00016,16.00016,0,0,1,148,108Zm31.96777,50.00537a60.016,60.016,0,0,1-103.93506.00049,12,12,0,0,1,20.7754-12.01611,36.01587,36.01587,0,0,0,62.38427-.00049,12,12,0,0,1,20.77539,12.01611Z"/>
  </symbol>
  <symbol id="error-thick" viewBox="0 0 256 256" fill="currentColor">
    <path d="M128,20A108,108,0,1,0,236,128,108.12186,108.12186,0,0,0,128,20Zm0,192a84,84,0,1,1,84-84A84.09562,84.09562,0,0,1,128,212ZM76,108a16,16,0,1,1,16,16A16.00016,16.00016,0,0,1,76,108Zm104,0a16,16,0,1,1-16-16A16.00016,16.00016,0,0,1,180,108Zm-5.41113,54.18652a12,12,0,1,1-18.62793,15.13282,36.0032,36.0032,0,0,0-55.92237.001A12.0002,12.0002,0,1,1,81.41016,162.1875a60.0038,60.0038,0,0,1,93.17871-.001Z"/>
  </symbol>
  <symbol id="message" viewBox="0 -4 32 32" fill="currentColor">
    <g transform="translate(-412.000000, -259.000000)">
      <path d="M442,279 C442,279.203 441.961,279.395 441.905,279.578 L433,270 L442,263 L442,279 L442,279 Z M415.556,280.946 L424.58,271.33 L428,273.915 L431.272,271.314 L440.444,280.946 C440.301,280.979 415.699,280.979 415.556,280.946 L415.556,280.946 Z M414,279 L414,263 L423,270 L414.095,279.578 C414.039,279.395 414,279.203 414,279 L414,279 Z M441,261 L428,271 L415,261 L441,261 L441,261 Z M440,259 L416,259 C413.791,259 412,260.791 412,263 L412,279 C412,281.209 413.791,283 416,283 L440,283 C442.209,283 444,281.209 444,279 L444,263 C444,260.791 442.209,259 440,259 L440,259 Z" />
    </g>  
  </symbol>
</svg>
